<?xml version="1.0" standalone="no"?><!DOCTYPE svg PUBLIC "-//W3C//DTD SVG 1.1//EN" "http://www.w3.org/Graphics/SVG/1.1/DTD/svg11.dtd"><svg t="1637300447858" class="icon" viewBox="0 0 1024 1024" version="1.1" xmlns="http://www.w3.org/2000/svg" p-id="4992" xmlns:xlink="http://www.w3.org/1999/xlink" width="64" height="64"><defs><style type="text/css"></style></defs><path d="M918.346 921.6H102.56c-17.067 0-27.307 10.24-30.72 27.307-3.414 17.066 13.653 34.133 30.72 34.133h812.373c20.48 0 30.72-17.067 30.72-30.72-3.413-13.653-13.653-27.307-27.307-30.72z m0-136.533H102.56c-17.067 0-27.307 10.24-30.72 27.306-3.414 17.067 13.653 34.134 30.72 34.134h812.373c20.48 0 30.72-17.067 30.72-30.72-3.413-17.067-13.653-27.307-27.307-30.72z" p-id="4993"></path><path d="M853.493 682.667h-686.08C47.946 692.907-3.254 617.813 0.16 515.413v-399.36C6.986 58.027 51.36 0 129.866 0h778.24c58.027 6.827 109.227 61.44 116.054 119.467v409.6c0 88.746-78.507 163.84-170.667 153.6z m-686.08-614.4c-51.2 0-95.573 40.96-95.573 95.573v354.987c0 51.2 44.373 95.573 98.986 95.573h686.08c54.614 0 98.987-40.96 98.987-95.573V163.84c0-51.2-44.373-95.573-98.987-95.573H167.413z" p-id="4994"></path><path d="M399.52 242.347h-204.8c-17.067 0-34.134-13.654-34.134-34.134V204.8c0-17.067 13.654-34.133 34.134-34.133h204.8c17.066 0 34.133 13.653 34.133 34.133v3.413c-3.413 20.48-17.067 34.134-34.133 34.134z" p-id="4995"></path></svg>