<?xml version="1.0" standalone="no"?><!DOCTYPE svg PUBLIC "-//W3C//DTD SVG 1.1//EN" "http://www.w3.org/Graphics/SVG/1.1/DTD/svg11.dtd"><svg t="1662277280724" class="icon" viewBox="0 0 1024 1024" version="1.1" xmlns="http://www.w3.org/2000/svg" p-id="2439" xmlns:xlink="http://www.w3.org/1999/xlink" width="64" height="64"><path d="M544 817.344v28.576h-0.032V864H544v-15.776l0.192 3.424c4.16 37.12 72.384 76.384 159.808 76.384 87.36 0 155.456-39.168 159.776-76.256l0.192-3.04v-31.392l-5.568 4.352C823.424 847.36 767.264 864 704 864c-66.784 0-125.632-18.56-160-46.656zM480 96c212.064 0 384 64.48 384 144 0 1.536-0.064 3.072-0.192 4.608L864 244.48l0.032 274.112A282.88 282.88 0 0 0 832 503.552v-14.208a267.968 267.968 0 0 1-13.536 9.216c-14.08-4.864-28.8-8.832-44.128-11.84 21.44-10.624 39.616-22.432 53.888-35.2L832 448l0.064-150.4C772.8 348.48 637.504 384 480 384c-157.44 0-292.768-35.52-352-86.4V448c59.232 56.512 194.56 96 352 96 9.088 0 18.08-0.128 26.976-0.384-11.968 9.92-22.4 20.736-31.04 32.32L480 576c-146.56 0-277.76-32.768-352-86.656L127.968 608H128v0.672l0.16 2.816c5.312 58.464 142.624 117.504 319.84 123.936v32c-143.616-4.896-264.8-42.784-320-95.392v104.832l4.448 9.12c27.84 57.088 162.592 105.6 325.088 109.76 3.424 8.416 7.776 16.576 12.928 24.48l5.44 7.744-7.744-0.032C287.36 925.664 130.816 871.488 96 800V240C96 160.48 267.936 96 480 96z m383.968 621.888l-1.312 1.216C828.096 748.608 769.92 768 704 768s-124.064-19.392-158.656-48.896L544 717.888v39.552c0 35.52 69.76 74.56 160 74.56 89.856 0 159.36-38.656 160-74.08l-0.032-40.032zM704 576c-90.24 0-160 41.856-160 80s69.76 80 160 80 160-41.856 160-80-69.76-80-160-80z m0-32c103.168 0 187.328 47.456 191.808 107.008L896 656v191.808l-0.032-0.736v0.96L896 848v0.064l-0.032 0.8 0.032 0.768h-0.064l-0.128 3.424C891.328 912.576 807.168 960 704 960c-103.168 0-187.328-47.456-191.808-106.944l-0.192-4.8 0.16 0.064L512 848v-192 0.032h0.064L512 656c0-61.856 85.952-112 192-112zM480 128C284.544 128 128 186.72 128 240S284.544 352 480 352s352-58.72 352-112S675.456 128 480 128z" p-id="2440"></path></svg>