<?xml version="1.0" standalone="no"?><!DOCTYPE svg PUBLIC "-//W3C//DTD SVG 1.1//EN" "http://www.w3.org/Graphics/SVG/1.1/DTD/svg11.dtd"><svg t="1617017563823" class="icon" viewBox="0 0 1024 1024" version="1.1" xmlns="http://www.w3.org/2000/svg" p-id="2066" width="64" height="64" xmlns:xlink="http://www.w3.org/1999/xlink"><defs><style type="text/css"></style></defs><path d="M512 999.5A487.63 487.63 0 0 1 322.23 62.82a487.62 487.62 0 0 1 379.54 898.36A484.47 484.47 0 0 1 512 999.5z m0-915a427.62 427.62 0 0 0-166.39 821.42 427.62 427.62 0 0 0 332.78-787.84A424.81 424.81 0 0 0 512 84.5z" p-id="2067"></path><path d="M497 494.15a970.37 970.37 0 0 1-178.8-16.48C161 448.21 67.52 389.76 63.62 387.29l32.13-50.67L79.68 362l16-25.36c0.22 0.14 22.49 14.05 62.65 31.12 37 15.72 97.12 37.41 173.78 51.52a925.06 925.06 0 0 0 264.15 9.69c111.74-11.79 224.61-43.5 335.44-94.29l25 54.55C839.26 443 719.41 476.55 600.5 488.81a1010.27 1010.27 0 0 1-103.5 5.34zM497 809.15a970.37 970.37 0 0 1-178.8-16.48C161 763.21 67.52 704.76 63.62 702.29l32.13-50.67L79.68 677l16-25.36c0.22 0.14 22.49 14 62.65 31.12 37 15.72 97.12 37.41 173.78 51.52 86 15.82 174.85 19.08 264.15 9.69 111.74-11.79 224.61-43.5 335.44-94.29l25 54.55C839.26 758 719.41 791.55 600.5 803.81a1010.27 1010.27 0 0 1-103.5 5.34z" p-id="2068"></path><path d="M468.97 54.69h60v914.63h-60zM767.7 910.56L711 890.88c30.93-89 50.17-184.28 57.21-283a1273.28 1273.28 0 0 0-6.39-242.71C745 226 711.57 134.61 711.23 133.7l56.27-20.84c1.47 4 36.27 99 53.91 245.06a1334.23 1334.23 0 0 1 6.67 254.17c-7.41 104.03-27.73 204.46-60.38 298.47zM253.17 911.14c-1.48-4-36.27-99-53.91-245.06a1334.24 1334.24 0 0 1-6.68-254.17c7.42-104 27.73-204.46 60.38-298.47l56.68 19.68c-30.92 89-50.17 184.28-57.21 283.05a1274.92 1274.92 0 0 0 6.39 242.71c16.8 139.12 50.27 230.51 50.61 231.42z" p-id="2069"></path></svg>