<?xml version="1.0" standalone="no"?><!DOCTYPE svg PUBLIC "-//W3C//DTD SVG 1.1//EN" "http://www.w3.org/Graphics/SVG/1.1/DTD/svg11.dtd"><svg t="1662208073009" class="icon" viewBox="0 0 1024 1024" version="1.1" xmlns="http://www.w3.org/2000/svg" p-id="3391" xmlns:xlink="http://www.w3.org/1999/xlink" width="64" height="64"><path d="M176 384h672v48H176zM176 600h672v48H176z" fill="#999999" p-id="3392"></path><path d="M380 176h48v672h-48zM596 176h48v672h-48z" fill="#999999" p-id="3393"></path><path d="M786.4 872H237.6c-48 0-85.6-37.6-85.6-85.6V237.6c0-48 37.6-85.6 85.6-85.6h548.8c48 0 85.6 37.6 85.6 85.6v548.8c0 48-37.6 85.6-85.6 85.6zM237.6 200c-20.8 0-37.6 16.8-37.6 37.6v548.8c0 20.8 16.8 37.6 37.6 37.6h548.8c20.8 0 37.6-16.8 37.6-37.6V237.6c0-20.8-16.8-37.6-37.6-37.6H237.6z" fill="#999999" p-id="3394"></path></svg>