<?xml version="1.0" standalone="no"?><!DOCTYPE svg PUBLIC "-//W3C//DTD SVG 1.1//EN" "http://www.w3.org/Graphics/SVG/1.1/DTD/svg11.dtd"><svg t="1610364869292" class="icon" viewBox="0 0 1024 1024" version="1.1" xmlns="http://www.w3.org/2000/svg" p-id="2772" xmlns:xlink="http://www.w3.org/1999/xlink" width="128" height="128"><defs><style type="text/css"></style></defs><path d="M940.76529 780.038844l-291.817556-145.833011 90.831939-132.144688a28.202921 28.202921 0 0 0 4.947414-15.942918v-199.186651c0-125.52015-100.671477-223.84181-229.188539-223.84181-128.530373 0-229.201849 98.32166-229.20185 223.84181v199.185627a28.130225 28.130225 0 0 0 5.208505 16.313565l93.566736 131.553906L80.594109 779.832019c-9.771962 4.673013-15.983874 14.55453-15.983873 25.384165v126.414001c0 15.543603 12.603004 28.146608 28.146607 28.146608h835.418753c15.543603 0 28.146608-12.603004 28.146608-28.146608V805.217208a28.138416 28.138416 0 0 0-15.556914-25.178364z m-483.335306-42.302846l-70.889725 30.001887-16.768169-63.988737 19.985217-9.572304 67.672677 43.559154z m60.505479 35.51039l62.165198 26.319997-36.055098 103.917193h-61.263155l-34.897083-100.581375 70.050138-29.655815z m60.507527-35.51039l66.317053-42.68578 20.882141 10.43544-16.323804 62.252227-70.87539-30.001887zM342.629913 477.129537V286.931576c0-93.951717 75.946694-167.548595 172.908635-167.548595 96.947606 0 172.8943 73.596877 172.8943 167.548595v190.444718l-104.203882 151.6067a28.182444 28.182444 0 0 0-4.054586 22.979058 28.119987 28.119987 0 0 0 7.424193 12.941911l-69.662086 44.832866-70.290751-45.237301a28.082103 28.082103 0 0 0 7.035116-12.524165 28.172205 28.172205 0 0 0-4.315677-23.364039L342.629913 477.129537zM120.904475 822.945782l197.166525-94.433967 22.264386 84.964052a28.204969 28.204969 0 0 0 14.801287 18.127889 28.151727 28.151727 0 0 0 23.391684 0.659383l17.401955-7.366855 27.266066 78.58627h-302.291903v-80.536772zM900.028989 903.483578H603.633641l28.423057-81.920041 25.274609 10.700625a28.147631 28.147631 0 0 0 23.39066-0.659382 28.172205 28.172205 0 0 0 14.80231-18.127889l21.570192-82.278401L900.028989 822.616091v80.867487z"  p-id="2773"></path></svg>
