<?xml version="1.0" standalone="no"?><!DOCTYPE svg PUBLIC "-//W3C//DTD SVG 1.1//EN" "http://www.w3.org/Graphics/SVG/1.1/DTD/svg11.dtd"><svg t="1612491460166" class="icon" viewBox="0 0 1024 1024" version="1.1" xmlns="http://www.w3.org/2000/svg" p-id="2634" xmlns:xlink="http://www.w3.org/1999/xlink" width="200" height="200"><defs><style type="text/css"></style></defs><path d="M941.84186 837.600248a43.722419 43.722419 0 0 0-0.571534-18.241488L753.679876 66.52031a43.277891 43.277891 0 0 0-7.731597-15.923597l0.428651-1.095442-2.238511-0.889054c-10.351132-11.891101-26.655752-18.050977-42.896869-14.304248L152.234667 159.521736a43.658915 43.658915 0 0 0-27.465427 19.511566c-2.810047 4.477023-4.619907 9.366822-5.667721 14.383628l-0.365147 0.492155 0.190512 0.142884c-1.158946 5.953488-1.14307 12.113364 0.254015 18.19386l57.725023 251.253086-2.667162-0.666791-100.288496 402.170047a47.850171 47.850171 0 0 0 8.795286 41.277519 47.834295 47.834295 0 0 0 37.92769 18.495504h162.220651l11.478326 49.97755a43.547783 43.547783 0 0 0 19.670326 27.513054 43.690667 43.690667 0 0 0 33.43479 5.39783l561.374264-134.929861a43.658915 43.658915 0 0 0 27.338419-19.956093 43.658915 43.658915 0 0 0 4.731038-11.637085l2.143256-2.492527-1.22245-1.047814zM705.766202 65.837643l-37.610171 95.017675a42.76986 42.76986 0 0 0-16.717395 0.635039L272.733271 252.110388c-5.715349 1.365333-10.954419 3.85786-15.510821 7.255317l-92.255256-70.187658 540.799008-123.340404z m-33.768186 134.675845l122.943503 527.939473a10.875039 10.875039 0 0 1-7.826852 13.002419l-366.766636 97.510201a10.922667 10.922667 0 0 1-13.367566-7.858604l-134.898108-534.829644a10.875039 10.875039 0 0 1 8.03324-13.27231l378.705364-90.620031a10.795659 10.795659 0 0 1 8.27138 1.333582 10.716279 10.716279 0 0 1 4.905675 6.794914zM120.67324 893.023256A16.352248 16.352248 0 0 1 104.781395 872.68614l86.460527-346.762915 84.349024 367.100031H120.67324z m202.132838 63.742015L153.631752 220.453705l86.793922 66.044031 0.301644-0.396899c-1.06369 5.889984-0.968434 11.970481 0.539783 17.939845l134.898108 534.829644c1.460589 5.762977 4.080124 11.017922 7.604589 15.590201l-60.96372 102.304744z m26.338232 17.844589l62.186171-104.336868c2.048 0.301643 4.080124 0.82555 6.159876 0.825551a42.865116 42.865116 0 0 0 11.017922-1.444714l366.766636-97.510201a42.547597 42.547597 0 0 0 14.272496-6.874295l89.365829 77.188962-549.76893 132.151565zM826.661705 738.121426l-0.412775 0.476279a42.944496 42.944496 0 0 0-0.396899-17.336558l-122.943504-527.939473a42.277705 42.277705 0 0 0-9.033426-17.685829l2.222635 0.873178 32.069458-81.01507 177.048806 710.465489-78.554295-67.838016z" p-id="2635"></path><path d="M627.180155 425.634729c5.921736-2.841798 9.922481-8.684155 10.39876-15.240931s-2.619535-12.907163-8.144372-16.638015l-122.483101-81.650109a18.416124 18.416124 0 0 0-26.893892 7.620466l-60.37631 131.421271c-2.698915 5.90586-2.048 12.891287 1.682853 18.19386 3.714977 5.302574 9.858977 8.366636 16.431628 7.731597l11.525953-0.889054-40.118573 59.55076a18.416124 18.416124 0 0 0 17.463566 28.51324l34.514356-4.207132-42.674604 87.444837a18.257364 18.257364 0 0 0 2.079752 19.41631 18.209736 18.209736 0 0 0 18.368496 6.588528l113.052775-24.798264 12.526139 67.949147v0.015876c2.032124 10.986171 8.573023 20.797519 17.955721 26.878016a41.023504 41.023504 0 0 0 31.847194 5.477209l12.970667-3.11169a40.547225 40.547225 0 0 0 28.100465-23.829829 40.563101 40.563101 0 0 0-2.444899-36.752869l-30.735876-52.009674 95.017674-20.845147a18.384372 18.384372 0 0 0 6.604403-32.974388l-69.139845-48.580465 29.180031-18.606636a18.368496 18.368496 0 0 0 1.000186-30.243721l-69.012837-51.072992 11.30369-5.350201z m-1.587597 275.844961a8.985798 8.985798 0 0 1 0.555659 8.223752 8.954047 8.954047 0 0 1-6.286884 5.334325l-12.970666 3.127566a9.160434 9.160434 0 0 1-11.144931-7.255317l-12.224496-66.377427 7.795101-1.047814 34.276217 57.994915z m24.750636-205.450915l-29.481675 18.813023a18.35262 18.35262 0 0 0-0.777922 30.577117l60.582698 42.563473-221.50152 48.612217 41.341023-84.682419a18.35262 18.35262 0 0 0-18.717767-26.306481l-29.878574 3.635597 39.22952-58.233054a18.368496 18.368496 0 1 0-16.685644-28.560868l-16.384 1.254201 44.30983-96.462387 89.842108 59.884155-10.255876 4.873922c-5.747101 2.810047-9.684341 8.493643-10.271752 14.891659-0.571535 6.461519 2.190884 12.605519 7.382326 16.415752l71.267225 52.724093z" p-id="2636"></path></svg>