<?xml version="1.0" standalone="no"?><!DOCTYPE svg PUBLIC "-//W3C//DTD SVG 1.1//EN" "http://www.w3.org/Graphics/SVG/1.1/DTD/svg11.dtd"><svg t="1606743588393" class="icon" viewBox="0 0 1024 1024" version="1.1" xmlns="http://www.w3.org/2000/svg" p-id="1306" width="128" height="128" xmlns:xlink="http://www.w3.org/1999/xlink"><defs><style type="text/css"></style></defs><path d="M501.333333 564.266667c-126.08 0-228.693333-102.613333-228.693333-228.693334S375.04 106.666667 501.333333 106.666667s228.693333 102.613333 228.693334 228.693333-102.613333 228.906667-228.693334 228.906667zM501.333333 170.666667c-90.88 0-164.693333 74.026667-164.693333 164.693333s74.026667 164.693333 164.693333 164.693333 164.693333-74.026667 164.693334-164.693333S592.213333 170.666667 501.333333 170.666667z" p-id="1307"></path><path d="M138.666667 896c-1.28 0-2.346667 0-3.626667-0.213333-17.493333-1.92-30.08-17.92-28.16-35.413334 0.64-5.76 2.773333-17.706667 4.48-26.453333l1.28-6.826667c32.64-189.226667 196.266667-326.613333 388.693333-326.613333 35.2 0 70.186667 4.693333 103.68 13.866667 17.066667 4.693333 27.093333 22.186667 22.4 39.253333-4.693333 17.066667-22.186667 27.093333-39.253333 22.4-28.16-7.68-57.386667-11.52-87.04-11.52-161.28 0-298.24 114.986667-325.76 273.493333l-1.28 7.466667c-1.28 7.466667-3.2 17.493333-3.84 22.4C168.533333 884.053333 154.666667 896 138.666667 896zM693.973333 911.146667c-1.92 0-3.626667-0.213333-5.546666-0.64a180.309333 180.309333 0 0 1-77.44-43.52 21.226667 21.226667 0 0 1-6.4-17.493334l3.626666-37.973333-34.986666-14.933333a21.184 21.184 0 0 1-12.16-14.08 180.906667 180.906667 0 0 1-2.986667-80.64c0.426667-2.133333 0.853333-4.053333 1.493333-5.973334l0.64-2.133333c1.493333-6.4 5.973333-11.733333 11.946667-14.506667l34.56-15.786666-4.48-37.973334c-0.853333-6.613333 1.493333-13.013333 6.186667-17.706666 21.12-21.12 47.573333-36.693333 76.373333-45.226667 6.4-1.92 13.013333-0.64 18.346667 3.2l30.933333 22.186667 30.506667-22.826667c5.333333-3.84 11.946667-5.333333 18.346666-3.626667 29.013333 7.893333 55.893333 22.826667 77.44 43.52 4.693333 4.48 7.04 10.88 6.4 17.493334l-3.626666 37.76 34.986666 14.933333c5.973333 2.56 10.453333 7.893333 12.16 14.08 7.04 26.666667 8.106667 53.973333 2.986667 80.64-0.426667 2.133333-0.853333 4.053333-1.493333 5.973333l-0.64 2.133334c-1.493333 6.4-5.973333 11.733333-11.946667 14.506666l-34.56 15.786667 4.48 37.973333c0.853333 6.613333-1.493333 13.013333-6.186667 17.706667-21.12 21.12-47.573333 36.693333-76.373333 45.226667-6.186667 1.92-13.013333 0.64-18.346667-3.2l-30.933333-22.186667-30.506667 22.826667c-3.84 2.986667-8.32 4.48-12.8 4.48z m-46.08-68.48c12.373333 10.24 26.666667 18.133333 42.026667 23.466666l34.133333-25.6a21.12 21.12 0 0 1 25.173334-0.213333l34.773333 24.96c15.146667-5.76 29.226667-14.08 41.386667-24.533333l-5.12-42.666667c-1.066667-9.173333 3.84-18.133333 12.373333-21.973333l39.04-17.706667c2.56-16 2.346667-32-0.64-48l-39.253333-16.853333c-8.533333-3.626667-13.653333-12.373333-12.8-21.76l4.053333-42.666667c-12.373333-10.24-26.666667-18.133333-42.026667-23.466667l-34.133333 25.6a21.12 21.12 0 0 1-25.173333 0.213334l-34.773334-24.96c-15.146667 5.76-29.226667 14.08-41.386666 24.533333l5.12 42.666667c1.066667 9.173333-3.84 18.133333-12.373334 21.973333l-39.04 17.706667c-2.56 16-2.346667 32 0.64 48l39.253334 16.853333c8.533333 3.626667 13.653333 12.373333 12.8 21.76l-4.053334 42.666667z m242.346667-69.12z" p-id="1308"></path><path d="M737.706667 807.893333c-39.253333 0-71.253333-32-71.253334-71.253333s32-71.253333 71.253334-71.253333 71.253333 32 71.253333 71.253333-32 71.253333-71.253333 71.253333z m0-99.84a28.586667 28.586667 0 1 0 0 57.173334 28.586667 28.586667 0 0 0 0-57.173334z" p-id="1309"></path></svg>