<?xml version="1.0" standalone="no"?><!DOCTYPE svg PUBLIC "-//W3C//DTD SVG 1.1//EN" "http://www.w3.org/Graphics/SVG/1.1/DTD/svg11.dtd"><svg t="1614399234610" class="icon" viewBox="0 0 1024 1024" version="1.1" xmlns="http://www.w3.org/2000/svg" p-id="2034" xmlns:xlink="http://www.w3.org/1999/xlink" width="200" height="200"><defs><style type="text/css"></style></defs><path d="M918.145 992.174H533.092a30.032 30.032 0 0 1-30.145-29.58 30.032 30.032 0 0 1 30.145-29.694h369.924V712.57l-518.955-0.339 69.378 68.25a29.355 29.355 0 0 1 0 41.774 30.484 30.484 0 0 1-42.45 0L294.077 707.208a28.903 28.903 0 0 1-8.298-21.903l0.056-0.338c-0.056-0.79-0.508-1.525-0.508-2.371a29.129 29.129 0 0 1 13.774-24.162l111.886-110.136a30.54 30.54 0 0 1 42.395 0 29.355 29.355 0 0 1 0 41.83l-63.903 62.944 528.609 0.338h0.056a45.217 45.217 0 0 1 31.951 12.984 43.863 43.863 0 0 1 13.153 31.387V947.69a44.935 44.935 0 0 1-45.104 44.484z m-40.08-445.23a29.75 29.75 0 0 1-29.468-29.92V91.948H119.418v840.33h206.273a29.806 29.806 0 0 1 27.04 29.864 29.75 29.75 0 0 1-27.04 29.862H104.74a44.596 44.596 0 0 1-44.201-44.822V77.044a44.54 44.54 0 0 1 44.2-44.765h758.591a43.467 43.467 0 0 1 31.217 13.04 44.844 44.844 0 0 1 12.928 31.725v439.98c0 16.484-13.21 29.92-29.411 29.92z" p-id="2035"></path></svg>