<?xml version="1.0" standalone="no"?><!DOCTYPE svg PUBLIC "-//W3C//DTD SVG 1.1//EN" "http://www.w3.org/Graphics/SVG/1.1/DTD/svg11.dtd"><svg t="1617782248465" class="icon" viewBox="0 0 1024 1024" version="1.1" xmlns="http://www.w3.org/2000/svg" p-id="2878" xmlns:xlink="http://www.w3.org/1999/xlink" width="64" height="64"><defs><style type="text/css"></style></defs><path d="M833.9 541.7c-24.7 0-44.7-20-44.7-44.7l-0.3-273.1c0-20-16.2-36.2-36.2-36.2H268.3c-19.2 0-34.7 15.6-34.7 34.7v86.2c0 24.7-20 44.7-44.7 44.7s-44.7-20-44.7-44.7v-86.2c0-68.5 55.7-124.2 124.2-124.2h484.3c69.3 0 125.6 56.4 125.7 125.6l0.3 273.1c-0.1 24.8-20.1 44.8-44.8 44.8zM754.4 926.4H270.1c-69.3 0-125.6-56.3-125.7-125.6l-0.3-293.3c0-24.7 20-44.8 44.7-44.8 24.7 0 44.7 20 44.7 44.7l0.3 293.3c0 20 16.3 36.2 36.2 36.2h484.3c19.1 0 34.7-15.6 34.7-34.7V697.3c0-24.7 20-44.7 44.7-44.7s44.7 20 44.7 44.7v104.9c0.2 68.5-55.5 124.2-124 124.2z" fill="#333333" p-id="2879"></path><path d="M833.9 577c-11.9 0-23.2-4.7-31.6-13.1l-80-80c-12.8-12.8-16.6-32-9.7-48.7 6.9-16.7 23.2-27.6 41.3-27.6H914c18.1 0 34.4 10.9 41.3 27.6 6.9 16.7 3.1 35.9-9.7 48.7l-80 80c-8.5 8.4-19.9 13.1-31.7 13.1zM268.9 592.2H108.8c-18.1 0-34.4-10.9-41.3-27.6-6.9-16.7-3.1-35.9 9.7-48.7l80-80c17.5-17.5 45.8-17.5 63.3 0l80 80c12.8 12.8 16.6 32 9.7 48.7-6.9 16.7-23.2 27.6-41.3 27.6z" fill="#333333" p-id="2880"></path></svg>