<?xml version="1.0" standalone="no"?><!DOCTYPE svg PUBLIC "-//W3C//DTD SVG 1.1//EN" "http://www.w3.org/Graphics/SVG/1.1/DTD/svg11.dtd"><svg t="1637890996690" class="icon" viewBox="0 0 1024 1024" version="1.1" xmlns="http://www.w3.org/2000/svg" p-id="2326" xmlns:xlink="http://www.w3.org/1999/xlink" width="64" height="64"><defs><style type="text/css"></style></defs><path d="M700.928 901.632H315.904c-32.256 0-58.368-26.112-58.368-58.368V490.496L251.392 496.64c-8.704 8.704-19.968 14.336-32.256 15.36-13.824 1.024-27.136-4.096-37.376-13.824L76.8 392.704c-18.944-18.944-18.944-49.152 0-68.096l160.256-160.256c9.216-9.216 21.504-14.336 33.792-14.336h57.856c10.752 0 20.48 6.144 25.6 15.872C383.488 225.792 445.44 264.192 512 264.192s128-38.4 157.696-98.304c4.608-9.728 14.848-15.872 25.6-15.872h57.856c12.8 0 25.088 5.12 33.792 14.336L947.2 324.608c18.944 18.944 18.944 49.152 0 68.096l-105.472 105.472c-9.216 9.216-21.504 14.336-34.304 14.336s-25.088-5.12-34.304-14.336l-7.168-7.168v346.624c0 33.28-29.184 64-65.024 64zM271.36 408.064c4.096 0 8.192 1.024 12.288 2.56l15.36 7.168c9.728 4.608 21.504 14.848 21.504 25.6v372.224c0 12.8 10.24 23.552 23.552 23.552H680.96c12.8 0 23.552-10.24 23.552-23.552V444.928c0-9.728 10.24-18.432 17.92-24.064l14.336-9.216c11.264-7.68 26.112-6.144 35.84 3.584l32.768 32.768L896 357.376l-146.432-145.92h-36.864C670.208 281.6 593.408 325.632 512 325.632c-81.92 0-158.72-44.032-200.192-114.176h-36.864L128.512 357.376l90.624 90.624 31.744-31.744c5.632-5.12 12.8-8.192 20.48-8.192z" fill="#333333" p-id="2327"></path></svg>
