<?xml version="1.0" standalone="no"?><!DOCTYPE svg PUBLIC "-//W3C//DTD SVG 1.1//EN" "http://www.w3.org/Graphics/SVG/1.1/DTD/svg11.dtd"><svg t="1637289726804" class="icon" viewBox="0 0 1024 1024" version="1.1" xmlns="http://www.w3.org/2000/svg" p-id="2278" xmlns:xlink="http://www.w3.org/1999/xlink" width="64" height="64"><defs><style type="text/css"></style></defs><path d="M479.7 576c159.1 0 288-128.9 288-288S638.8 0 479.7 0s-288 128.9-288 288 129 288 288 288z m0-512c123.5 0 224 100.5 224 224s-100.5 224-224 224-224-100.5-224-224 100.5-224 224-224zM479.7 640c-218.9 0-398 169.3-414.4 384h64c16.2-179.1 167.1-320 350.4-320s334.1 140.9 350.4 320h64c-16.4-214.7-195.4-384-414.4-384z" p-id="2279"></path></svg>